<?xml version="1.0" encoding="UTF-8" standalone="no"?>
<!-- Created with Inkscape (http://www.inkscape.org/) -->

<svg
   width="4.25in"
   height="1.5in"
   viewBox="0 0 107.95002 38.100001"
   version="1.1"
   id="svg5"
   inkscape:version="1.2.1 (9c6d41e410, 2022-07-14)"
   sodipodi:docname="mochi-art.svg"
   xmlns:inkscape="http://www.inkscape.org/namespaces/inkscape"
   xmlns:sodipodi="http://sodipodi.sourceforge.net/DTD/sodipodi-0.dtd"
   xmlns="http://www.w3.org/2000/svg"
   xmlns:svg="http://www.w3.org/2000/svg">
  <defs
     id="defs2">
    <style>
       .dna{
         animation: move 3s infinite cubic-bezier(.3,0,.3,1);}
       @keyframes move{
         0%{
           transform: translate(0,0);}
         50%{
           transform: translate(.105in,0);}
         100%{
           transform: translate(0,0);}
         }
    </style>
    <filter
       inkscape:collect="always"
       style="color-interpolation-filters:sRGB"
       id="filter14194"
       x="-0.20862582"
       y="-0.26631275"
       width="1.4172516"
       height="1.5326255">
      <feGaussianBlur
         inkscape:collect="always"
         stdDeviation="0.60874877"
         id="feGaussianBlur14196" />
    </filter>
    <filter
       inkscape:collect="always"
       style="color-interpolation-filters:sRGB"
       id="filter14194-5"
       x="-0.20862582"
       y="-0.26631275"
       width="1.4172516"
       height="1.5326255">
      <feGaussianBlur
         inkscape:collect="always"
         stdDeviation="0.60874877"
         id="feGaussianBlur14196-1" />
    </filter>
    <filter
       inkscape:collect="always"
       style="color-interpolation-filters:sRGB"
       id="filter14194-5-3"
       x="-0.20752283"
       y="-0.26542535"
       width="1.4150457"
       height="1.5308507">
      <feGaussianBlur
         inkscape:collect="always"
         stdDeviation="0.60874877"
         id="feGaussianBlur14196-1-1" />
    </filter>
    <filter
       inkscape:collect="always"
       style="color-interpolation-filters:sRGB"
       id="filter14194-5-3-9"
       x="-0.20752283"
       y="-0.26542535"
       width="1.4150457"
       height="1.5308507">
      <feGaussianBlur
         inkscape:collect="always"
         stdDeviation="0.60874877"
         id="feGaussianBlur14196-1-1-4" />
    </filter>
  </defs>
  <g
     inkscape:label="Layer 1"
     inkscape:groupmode="layer"
     id="layer1"
     transform="translate(-61.322024,-25.298858)">
    <g
       id="dna"
       class="dna">
      <path
         id="dna2"
         style="fill:#2f4451;fill-opacity:1;stroke:none;stroke-width:0.420339;stroke-linecap:round;stroke-linejoin:round;stroke-dasharray:none;stroke-opacity:1;stop-color:#000000"
         d="M 105.15294 43.939064 C 105.00429 43.940164 104.8546 43.955236 104.70491 43.986606 C 103.85176 44.165381 103.33366 44.686419 102.94687 45.285752 C 103.22412 45.740054 103.3688 46.242729 103.50756 46.743544 C 103.59886 46.49131 103.72162 46.22464 103.92304 45.917754 C 104.20586 45.486883 104.69691 44.943169 105.36378 45.055792 C 106.05302 45.172195 106.55521 45.712965 106.74923 46.26502 C 107.01811 47.03 107.17454 47.886583 107.55848 48.544468 C 107.55816 48.544963 107.55796 48.544894 107.55796 48.545501 C 107.68957 48.762213 107.85188 48.96769 108.05819 49.156833 C 108.37939 49.451275 108.78133 49.697128 109.23228 49.839996 C 109.64632 50.042177 110.21099 49.992642 110.67095 49.934564 C 111.42443 49.839414 111.92593 49.391864 112.26155 48.845741 C 112.04064 48.533359 111.88232 48.190763 111.76907 47.843218 C 111.71177 47.667349 111.66619 47.486436 111.62076 47.305267 C 111.51871 47.649944 111.41141 47.98494 111.12312 48.434914 C 110.96353 48.684005 110.6635 48.79994 110.33454 48.836956 C 110.29759 48.837613 110.26048 48.841256 110.22343 48.846775 C 110.05418 48.856823 109.88079 48.848148 109.71752 48.827138 C 109.40786 48.734857 109.14716 48.508321 108.96511 48.295904 C 108.59056 47.858904 108.46448 47.337322 108.33518 46.821059 C 108.33551 46.819959 108.33621 46.818641 108.33621 46.817441 C 108.29121 46.636156 108.24475 46.455888 108.18738 46.280006 C 108.07412 45.93238 107.91641 45.589405 107.69542 45.276967 C 107.69513 45.277473 107.69435 45.278883 107.69335 45.278 C 107.48427 44.984107 107.22167 44.716056 106.8841 44.49872 C 106.40538 44.190485 105.82169 43.951227 105.2165 43.939581 C 105.1954 43.939176 105.17424 43.938858 105.15294 43.939064 z M 115.32648 43.939064 C 115.17783 43.940164 115.02762 43.955236 114.87793 43.986606 C 114.02478 44.165381 113.5072 44.686419 113.12041 45.285752 C 113.39766 45.740054 113.54234 46.242213 113.6811 46.743027 C 113.7724 46.490793 113.89516 46.224123 114.09658 45.917238 C 114.3794 45.486366 114.86993 44.943169 115.5368 45.055792 C 116.22604 45.172195 116.72823 45.712448 116.92225 46.264503 C 117.19113 47.029484 117.34808 47.886066 117.73202 48.543951 C 117.7317 48.544446 117.73098 48.544894 117.73098 48.545501 C 117.86259 48.762213 118.0249 48.96769 118.23121 49.156833 C 118.78892 49.668079 119.59093 50.032508 120.46828 49.966603 C 120.93796 49.931323 121.35653 49.620033 121.20364 49.236415 C 121.08847 48.947321 120.71418 48.782636 120.35925 48.851942 C 119.84452 48.952449 119.40619 48.608159 119.13813 48.295387 C 118.76358 47.858388 118.63802 47.336805 118.50871 46.820542 C 118.50904 46.819442 118.50975 46.818641 118.50975 46.817441 C 118.46475 46.636156 118.41777 46.455371 118.3604 46.27949 C 118.24714 45.931863 118.08943 45.588889 117.86844 45.27645 C 117.86815 45.276956 117.86789 45.278366 117.86689 45.277483 C 117.65781 44.98359 117.39469 44.71554 117.05712 44.498203 C 116.5784 44.189968 115.99523 43.951227 115.39004 43.939581 C 115.36894 43.939176 115.34778 43.938858 115.32648 43.939064 z M 101.44722 47.305783 C 101.34517 47.650461 101.23839 47.98494 100.9501 48.434914 C 100.67395 48.865948 99.977316 48.901025 99.437527 48.812151 C 98.857458 48.716642 98.458607 49.389568 98.872187 49.72269 C 99.288986 50.058399 99.963617 50.002481 100.49741 49.93508 C 101.25089 49.83993 101.75239 49.39238 102.08801 48.846258 C 101.8671 48.533876 101.7093 48.190763 101.59605 47.843218 C 101.53875 47.667349 101.49265 47.486952 101.44722 47.305783 z " />
      <path
         id="dna1"
         style="fill:#436c6f;fill-opacity:1;stroke:none;stroke-width:0.420339;stroke-linecap:round;stroke-linejoin:round;stroke-dasharray:none;stroke-opacity:1;stop-color:#000000"
         d="M 110.18054 43.897723 C 110.13986 43.89816 110.09874 43.899407 110.05755 43.901857 C 110.02372 43.903828 109.99046 43.907434 109.9573 43.912192 C 109.83389 43.919843 109.71268 43.931212 109.59815 43.943715 C 108.84915 44.025525 108.34034 44.45788 107.99359 44.991713 C 108.19561 45.298011 108.33947 45.630515 108.44163 45.966847 C 108.49533 46.143604 108.53837 46.324911 108.5796 46.506866 C 108.57959 46.507966 108.57879 46.508866 108.57857 46.509966 C 108.58257 46.528196 108.58727 46.546523 108.59097 46.564743 C 108.70106 46.218776 108.81431 45.883895 109.11446 45.435097 C 109.39952 45.008866 110.09676 44.986366 110.63478 45.084214 C 110.66577 45.089851 110.6963 45.09266 110.72624 45.094032 C 110.98323 45.206599 111.19839 45.40616 111.3536 45.59426 C 111.84813 46.193614 111.88401 46.940198 112.09102 47.621526 C 112.10132 47.655686 112.11279 47.689765 112.12409 47.723846 C 112.22637 48.021339 112.36272 48.313362 112.54629 48.583742 C 112.54429 48.587942 112.54102 48.592024 112.53802 48.596144 C 112.7436 48.908214 113.00986 49.192559 113.35657 49.424517 C 113.96129 49.829109 114.73996 50.123025 115.52543 49.972287 C 116.38739 49.806871 116.91707 49.289812 117.31706 48.692779 C 117.30906 48.680039 117.3012 48.667328 117.2938 48.654538 C 117.29382 48.653979 117.29459 48.654004 117.29483 48.653505 C 117.06031 48.233136 116.91895 47.734578 116.7822 47.230336 C 116.6852 47.482954 116.55623 47.74947 116.34657 48.055608 C 116.05488 48.481565 115.55287 49.016472 114.88826 48.892767 C 114.20134 48.764908 113.71248 48.215299 113.52762 47.660801 C 113.43182 47.373649 113.3589 47.076821 113.28268 46.779717 C 113.28197 46.781617 113.28161 46.783602 113.28061 46.785402 C 113.21761 46.538234 113.15349 46.290807 113.07235 46.048496 C 113.07161 46.044396 113.06919 46.040354 113.06719 46.036094 C 112.90607 45.57254 112.67898 45.1295 112.27809 44.748317 C 111.78216 44.276773 111.08282 43.922909 110.30198 43.898756 C 110.26153 43.897556 110.22123 43.897285 110.18054 43.897723 z M 100.00752 43.89824 C 99.966832 43.898677 99.925718 43.899924 99.884528 43.902374 C 99.414059 43.929794 98.98867 44.233644 99.13367 44.619643 C 99.242909 44.910527 99.614428 45.081416 99.970828 45.018068 C 100.48766 44.926188 100.9184 45.27767 101.18006 45.594777 C 101.6746 46.194131 101.71047 46.940715 101.91748 47.622043 C 101.92778 47.656203 101.93925 47.690282 101.95055 47.724363 C 102.05283 48.021856 102.18918 48.313362 102.37275 48.583742 C 102.37075 48.587942 102.368 48.592024 102.365 48.596144 C 102.57058 48.908214 102.83633 49.192559 103.18303 49.424517 C 103.78775 49.829109 104.56643 50.123542 105.35189 49.972804 C 106.21385 49.807387 106.74404 49.290329 107.14403 48.693296 C 107.13603 48.680556 107.12818 48.667845 107.12078 48.655055 C 107.1208 48.654496 107.12157 48.654004 107.12181 48.653505 C 106.88728 48.233136 106.74542 47.735095 106.60867 47.230853 C 106.51167 47.48347 106.38321 47.74947 106.17355 48.055608 C 105.88186 48.481565 105.37933 49.016988 104.71472 48.893283 C 104.0278 48.765425 103.53946 48.215816 103.3546 47.661317 C 103.2588 47.374166 103.18587 47.077338 103.10965 46.780234 C 103.10894 46.782134 103.10859 46.784119 103.10759 46.785919 C 103.04459 46.538751 102.97995 46.291323 102.89881 46.049013 C 102.89807 46.044913 102.89616 46.04087 102.89416 46.03661 C 102.73304 45.573057 102.50544 45.130017 102.10455 44.748834 C 101.60873 44.277394 100.90959 43.923567 100.12896 43.899273 L 100.12844 43.899273 C 100.08816 43.898084 100.04803 43.897804 100.00752 43.89824 z M 120.41092 43.90289 C 120.19216 43.90129 119.97188 43.921805 119.77117 43.943715 C 119.02217 44.025525 118.51337 44.457364 118.16662 44.991196 C 118.36864 45.297494 118.51249 45.630515 118.61465 45.966847 C 118.66835 46.143604 118.7114 46.324394 118.75263 46.506349 C 118.75262 46.507449 118.75181 46.508866 118.75159 46.509966 C 118.75559 46.528196 118.76081 46.546007 118.76451 46.564227 C 118.8746 46.218259 118.98785 45.883895 119.28799 45.435097 C 119.57305 45.008866 120.2703 44.986366 120.80832 45.084214 C 121.38647 45.189368 121.79904 44.522853 121.39226 44.182977 C 121.13607 43.968906 120.77603 43.90617 120.41144 43.903407 L 120.41092 43.90289 z " />
    </g>
    <path
       style="fill:#dddda7;fill-opacity:1;stroke:#362925;stroke-width:0.6;stroke-linecap:round;stroke-linejoin:round;stroke-dasharray:none;stroke-opacity:1;stop-color:#000000"
       d="m 106.75694,55.483961 c 0.42442,-0.326913 1.70801,-1.741126 2.24939,-2.862004 0.59887,-1.239878 0.87518,-2.677621 1.01287,-4.082739 0.0937,-0.956206 0.0515,-1.943604 -0.13455,-2.882248 -0.21185,-1.068356 -0.4731,-2.200183 -1.09996,-3.038975 -0.39232,-0.524943 -0.95369,-1.028301 -1.94359,-0.611629 -0.25641,-0.639345 -0.52716,-1.233008 -0.80246,-1.761563 -3.97263,-7.627062 -12.144113,-11.566118 -19.27531,-12.00661 -6.419682,-0.396543 -13.596531,2.69695 -18.078084,8.62013 -3.027152,4.000929 -5.421167,10.502187 -4.190286,15.854883 0.547809,2.382242 2.712469,3.848034 4.549452,4.617928 11.960577,5.012753 30.343898,3.82852 37.712568,-1.847173 z"
       id="redbean-mochi"
       sodipodi:nodetypes="saaascsaaaass" />
    <path
       style="fill:#fcfccf;fill-opacity:1;stroke:none;stroke-width:0.212113;stroke-linecap:round;stroke-linejoin:round;stop-color:#000000"
       d="m 106.26837,54.308719 c 0.7633,-0.780134 0.57145,-0.506321 0.81702,-0.806516 0.74211,-0.907207 1.56711,-1.819653 1.95826,-2.97498 0.55159,-1.62919 0.66978,-3.490695 0.42394,-5.213472 -0.13238,-0.927573 -0.31904,-1.56324 -0.99728,-2.581998 -0.25799,-0.387498 -0.57443,-0.53801 -0.88064,-0.561287 -0.30621,-0.02328 -0.63063,0.135959 -0.79005,0.15247 -0.0872,0.009 -0.11281,-0.06513 -0.35192,-0.637378 -0.25263,-0.604572 -0.52476,-1.167084 -0.80644,-1.670564 -3.72319,-6.654859 -11.235216,-10.895454 -18.397065,-11.118692 -5.905506,-0.184078 -12.052979,3.566143 -15.711375,8.20565 -3.037368,3.851933 -4.89586,9.547035 -3.582767,14.273426 0.544879,1.961256 2.431966,3.568749 4.328834,4.307197 10.566599,4.113565 26.978083,3.919922 33.989443,-1.373856 z"
       id="redbean-highlight"
       sodipodi:nodetypes="caaasssssaaaasc" />
    <path
       style="fill:#dddda7;fill-opacity:1;stroke:none;stroke-width:0.427006;stroke-linecap:round;stroke-linejoin:round;stroke-dasharray:none;stroke-opacity:1;stop-color:#000000"
       id="redbean-righthand"
       d="m 105.14381,44.32321 c -0.23968,0.2434 -0.38742,0.570441 -0.50793,0.89008 -0.30622,0.812222 -0.70347,1.701638 -0.52379,2.550867 0.0595,0.281581 0.22006,0.642111 0.50139,0.702998 0.2862,0.06194 0.58769,-0.203623 0.76015,-0.440257 0.22396,-0.307295 0.17482,-0.740509 0.24199,-1.114768 0.0633,-0.352274 0.0875,-0.710868 0.15153,-1.062994 0.0671,-0.368464 0.26587,-0.722932 0.24388,-1.096818 -0.0166,-0.275111 -0.0141,-0.685929 -0.27288,-0.780499 -0.21617,-0.07897 -0.43286,0.187402 -0.59436,0.351389 z"
       sodipodi:nodetypes="aaaaaaaaaa" />
    <path
       style="fill:#362925;fill-opacity:1;stroke:none;stroke-width:0.270339;stroke-linecap:round;stroke-linejoin:round;stroke-dasharray:none;stroke-opacity:1;stop-color:#000000"
       d="m 83.985842,38.239282 c -0.252309,-0.389104 -0.462238,-0.528673 -0.732588,-0.73555 -0.385152,-0.294725 -0.795298,-0.583976 -1.247416,-0.70529 -0.524164,-0.140646 -1.123224,-0.250935 -1.615884,-0.004 -0.428431,0.214787 -0.708719,0.721425 -0.943739,1.181045 -0.205582,0.402052 -0.315463,0.866954 -0.380677,1.325819 -0.06578,0.462875 -0.05456,0.904967 -0.006,1.406542 0.02953,0.304969 0.324537,-0.940504 0.519431,-1.393925 0.145683,-0.338935 0.288884,-0.683887 0.484565,-0.988708 0.183721,-0.286188 0.355621,-0.628195 0.639181,-0.776091 0.315631,-0.164624 0.696362,-0.0976 1.041247,-0.0503 0.388364,0.05327 0.751224,0.247978 1.126821,0.372024 0.371684,0.122754 1.374658,0.768782 1.115021,0.368374 z"
       id="redbean-lefteye"
       sodipodi:nodetypes="saaaaasaaaaass" />
    <path
       style="fill:#362925;fill-opacity:1;stroke:none;stroke-width:0.270339;stroke-linecap:round;stroke-linejoin:round;stroke-dasharray:none;stroke-opacity:1;stop-color:#000000"
       d="m 100.23597,39.003226 c 0.003,-0.483016 -0.0913,-0.737372 -0.19862,-1.086673 -0.15297,-0.49763 -0.32885,-1.007848 -0.62698,-1.412049 -0.34564,-0.468614 -0.76728,-0.963772 -1.29224,-1.100506 -0.45653,-0.118896 -0.94842,0.09658 -1.379239,0.305144 -0.376855,0.182438 -0.71022,0.480211 -1.004621,0.803478 -0.296972,0.326096 -0.52129,0.687839 -0.747085,1.122592 -0.137288,0.26434 0.756303,-0.532962 1.151706,-0.763806 0.295566,-0.172557 0.592318,-0.35162 0.909929,-0.462899 0.2982,-0.104477 0.61638,-0.26169 0.92157,-0.187595 0.3397,0.08247 0.6093,0.394715 0.86059,0.666815 0.28297,0.306403 0.47086,0.708781 0.70625,1.063206 0.23294,0.350734 0.6954,1.549315 0.69874,1.052269 z"
       id="redbean-righteye"
       sodipodi:nodetypes="saaaaasaaaaass" />
    <path
       style="fill:#362925;fill-opacity:1;stroke:none;stroke-width:0.585435;stroke-linecap:round;stroke-linejoin:round;stroke-dasharray:none;stroke-opacity:1;stop-color:#000000"
       d="m 95.961807,42.266827 c -0.07076,-0.66308 -0.403137,-1.332728 -0.988633,-1.660535 -0.509247,-0.285118 -1.204222,-0.187696 -1.783534,-0.03571 -0.543519,0.142591 -0.951764,0.699011 -1.490449,0.863524 -0.537118,0.164036 -1.115467,0.189399 -1.666316,0.101738 -0.628237,-0.09998 -1.168204,-0.627319 -1.798911,-0.704725 -0.65655,-0.08058 -1.465928,-0.135292 -1.967604,0.262294 -0.506145,0.401129 -0.643857,1.154386 -0.580376,1.768578 0.116071,1.123005 0.839197,2.330614 1.705733,3.002514 1.032084,0.800263 2.427325,0.936636 3.67508,0.848748 1.382992,-0.09742 2.945997,-0.409475 3.939516,-1.505155 0.660439,-0.72835 1.06619,-1.903967 0.955494,-2.941267 z"
       id="redbean-mouth"
       sodipodi:nodetypes="aaaaaaaaaaaa" />
    <path
       style="fill:#d58f78;fill-opacity:1;stroke:none;stroke-width:0.91059;stroke-linecap:round;stroke-linejoin:round;stroke-dasharray:none;stroke-opacity:1;stop-color:#000000"
       d="m 87.165028,42.669448 c 0.820156,-0.05237 1.699468,0.292906 2.313644,0.799677 0.502959,0.415003 0.8052,1.051187 0.915693,1.664034 0.06581,0.365029 0.103751,1.015384 -0.168832,1.097575 -0.272585,0.08219 -0.825044,0.05255 -1.218574,-0.06354 -0.623406,-0.18392 -1.254629,-0.484665 -1.729032,-0.978947 -0.51412,-0.535665 -1.068284,-1.701988 -1.090801,-2.027916 -0.02251,-0.325928 0.607018,-0.467192 0.977902,-0.490875 z"
       id="redbean-tongue"
       sodipodi:nodetypes="aaasaaza" />
    <path
       style="mix-blend-mode:normal;fill:#f2cca6;fill-opacity:0.60000002;stroke:none;stroke-width:1.139;stroke-linecap:round;stroke-linejoin:round;stroke-dasharray:none;stroke-opacity:1;filter:url(#filter14194-5-3);stop-color:#000000"
       d="m 55.060665,76.547753 c -1.148119,0.694034 -2.396219,1.561587 -2.877736,2.813786 -0.183978,0.478441 -0.235847,1.144052 0.09593,1.534792 0.339715,0.400089 0.930473,0.507339 1.534793,0.351724 1.97344,-0.50817 4.353225,-2.091574 5.179922,-3.77303 0.224126,-0.45586 -0.04253,-0.883024 -0.319748,-1.183072 -0.32257,-0.349137 -0.867656,-0.472552 -1.342943,-0.479622 -0.795367,-0.01183 -1.589475,0.323915 -2.270218,0.735422 z"
       id="redbean-leftblush"
       sodipodi:nodetypes="aaaaaaaa"
       transform="matrix(0.22440811,0.47414812,-0.37569811,0.46231802,99.00632,-18.661991)" />
    <path
       style="mix-blend-mode:normal;fill:#f2cca6;fill-opacity:0.60000002;stroke:none;stroke-width:1.139;stroke-linecap:round;stroke-linejoin:round;stroke-dasharray:none;stroke-opacity:1;filter:url(#filter14194-5-3-9);stop-color:#000000"
       d="m 55.060665,76.547753 c -1.148119,0.694034 -2.396219,1.561587 -2.877736,2.813786 -0.183978,0.478441 -0.235847,1.144052 0.09593,1.534792 0.339715,0.400089 0.930473,0.507339 1.534793,0.351724 1.97344,-0.50817 4.353225,-2.091574 5.179922,-3.77303 0.224126,-0.45586 -0.04253,-0.883024 -0.319748,-1.183072 -0.32257,-0.349137 -0.867656,-0.472552 -1.342943,-0.479622 -0.795367,-0.01183 -1.589475,0.323915 -2.270218,0.735422 z"
       id="redbean-rightblush"
       sodipodi:nodetypes="aaaaaaaa"
       transform="matrix(-0.13563966,0.51013994,0.39389444,0.38425139,75.686961,-15.138534)" />
    <path
       style="fill:#a8d18a;fill-opacity:1;stroke:#2c3625;stroke-width:0.6;stroke-linecap:round;stroke-linejoin:round;stroke-dasharray:none;stroke-opacity:1;stop-color:#000000"
       d="m 124.60481,55.486718 c -0.41686,-0.326949 -0.75228,-0.744225 -1.01589,-1.232393 -0.2636,-0.488169 -0.45539,-1.047233 -0.58498,-1.65776 -0.12959,-0.610527 -0.80223,-0.890267 -1.12458,-1.40947 -0.46584,-0.750285 -0.95204,-1.536383 -1.14896,-2.431201 -0.27945,-1.269841 -0.40792,-2.710867 0.006,-3.930666 0.34693,-1.02195 0.72691,-1.669668 1.93414,-2.419459 0.37973,-0.235846 1.00064,-0.390348 1.85144,-0.398163 0.25185,-0.639417 0.51778,-1.233147 0.78816,-1.761761 3.90182,-7.627921 11.92761,-11.567419 18.93167,-12.007961 6.30523,-0.396587 13.35414,2.697253 17.75579,8.6211 2.97318,4.001379 5.32452,10.503368 4.11558,15.856666 -0.53805,2.382511 -2.66411,3.848468 -4.46835,4.618448 -11.74733,5.013318 -29.80292,3.828935 -37.0402,-1.84738 z"
       id="greentea-mochi"
       sodipodi:nodetypes="sssaaascsaaaas" />
    <path
       style="fill:#b5eb98;fill-opacity:1;stroke:none;stroke-width:0.210226;stroke-linecap:round;stroke-linejoin:round;stop-color:#000000"
       d="m 125.18553,54.230139 c -0.39665,-0.30495 -0.7158,-0.694148 -0.96663,-1.149467 -0.25082,-0.45532 -0.15666,-1.008289 -0.43501,-1.499395 -0.23523,-0.415032 -0.89831,-0.678192 -1.25533,-1.131992 -0.45887,-0.583292 -0.89044,-1.24401 -1.09991,-1.994097 -0.2884,-1.032811 -0.39907,-2.200923 -0.1599,-3.250378 0.2005,-0.879773 0.75619,-1.800554 1.27817,-2.295447 0.67687,-0.641732 1.39457,-0.536055 2.17965,-0.662011 0.23066,-0.594322 0.73114,-1.692679 0.98841,-2.185722 3.7126,-7.114641 11.04176,-10.974928 18.15549,-11.246768 5.57352,-0.212984 11.3671,3.348453 14.8556,7.700454 3.18965,3.97918 5.22709,9.861314 3.916,14.78968 -0.51868,1.949687 -2.37449,3.568416 -4.25166,4.307681 -10.30739,4.059227 -26.31852,3.911818 -33.20488,-1.382538 z"
       id="greentea-highlight"
       sodipodi:nodetypes="sssaaascsaaaas" />
    <path
       style="fill:#a8d18a;fill-opacity:1;stroke:none;stroke-width:0.486855;stroke-linecap:round;stroke-linejoin:round;stroke-dasharray:none;stroke-opacity:1;stop-color:#000000"
       id="greentea-lefthand"
       d="m 125.56412,44.952241 c 0.006,0.236872 -0.009,0.473673 -0.0274,0.708545 -0.0421,0.538458 -0.21736,1.059307 -0.18918,1.601676 0.0171,0.327993 0.0126,0.764931 0.21387,0.946317 0.22272,0.200754 0.54668,0.02659 0.78197,-0.129067 0.22759,-0.150549 0.44479,-0.407424 0.53814,-0.731478 0.20223,-0.702243 0.0604,-1.535929 -0.0516,-2.285149 -0.0506,-0.33849 -0.10987,-0.705889 -0.2755,-0.968203 -0.14878,-0.235634 -0.37262,-0.518474 -0.59129,-0.45863 -0.24342,0.06661 -0.38465,0.48213 -0.44741,0.813144 -0.0308,0.162196 0.0434,0.334246 0.0483,0.502846 z"
       sodipodi:nodetypes="aaaaaaaaaaaa" />
    <path
       style="fill:#2c3625;fill-opacity:1;stroke:none;stroke-width:0.317598;stroke-linecap:round;stroke-linejoin:round;stroke-dasharray:none;stroke-opacity:1;stop-color:#000000"
       d="m 128.9479,43.664293 c -0.0517,-0.558647 -0.0178,-1.03896 0.13428,-1.519626 0.14897,-0.470865 0.39241,-0.933088 0.73707,-1.256948 0.37095,-0.348566 0.83591,-0.569043 1.33885,-0.650657 0.52717,-0.08555 1.08624,-0.02059 1.57605,0.198524 0.4703,0.210397 0.92684,0.557808 1.20455,1.025249 0.27419,0.461512 0.46428,0.912032 0.36525,1.60434 -0.0596,0.416907 -0.36541,-0.718098 -0.62841,-1.003044 -0.27126,-0.293879 -0.59569,-0.544525 -0.95025,-0.697192 -0.42959,-0.184964 -0.90139,-0.305672 -1.36677,-0.239502 -0.46162,0.06564 -0.86544,0.31139 -1.22497,0.604529 -0.25317,0.206426 -0.44158,0.499105 -0.62105,0.784025 -0.22561,0.358188 -0.4539,1.541572 -0.5646,1.150302 z"
       id="greentea-lefteye"
       sodipodi:nodetypes="saaaaasaaaaacs" />
    <path
       style="fill:#2c3625;fill-opacity:1;stroke:none;stroke-width:0.317598;stroke-linecap:round;stroke-linejoin:round;stroke-dasharray:none;stroke-opacity:1;stop-color:#000000"
       d="m 143.5237,43.084701 c 0.13241,-0.542314 0.31936,-0.977995 0.61692,-1.367764 0.29149,-0.38182 0.6685,-0.718609 1.09536,-0.886497 0.45941,-0.180697 0.96528,-0.204904 1.46172,-0.08448 0.52037,0.126228 1.02189,0.40559 1.40881,0.801955 0.37152,0.380582 0.68588,0.883842 0.79427,1.429341 0.10701,0.538576 0.13897,1.033988 -0.17747,1.642301 -0.19055,0.366325 -0.10928,-0.814061 -0.26295,-1.183243 -0.15848,-0.380756 -0.38066,-0.74191 -0.66267,-1.02327 -0.34168,-0.340885 -0.74361,-0.63823 -1.19995,-0.758399 -0.45268,-0.1192 -0.90957,-0.04745 -1.34039,0.0859 -0.30337,0.09391 -0.57412,0.293766 -0.83399,0.489869 -0.32669,0.246532 -0.92275,1.263261 -0.89968,0.854277 z"
       id="greentea-righteye"
       sodipodi:nodetypes="saaaaasaaaaacs" />
    <path
       style="fill:#2c3625;fill-opacity:1;stroke:none;stroke-width:0.411729;stroke-linecap:round;stroke-linejoin:round;stroke-dasharray:none;stroke-opacity:1;stop-color:#000000"
       d="m 136.0829,45.637888 c 0.0276,-0.552256 0.23429,-1.166481 0.56567,-1.447993 0.28821,-0.24485 0.6834,-0.149474 1.00409,-0.01155 0.36129,0.15538 0.59378,0.735332 0.94068,0.904082 0.35274,0.171588 0.7433,0.232286 1.10617,0.08409 0.27191,-0.111044 0.45178,-0.614055 0.74113,-0.704179 0.36484,-0.113639 0.82588,-0.102578 1.10605,0.252328 0.28268,0.358065 0.35602,1.021423 0.31689,1.560359 -0.0715,0.985406 -0.47879,2.043653 -0.97672,2.619112 -0.58243,0.673117 -1.36325,0.751634 -2.0431,0.617979 -0.78023,-0.153389 -1.5911,-0.655331 -2.1484,-1.592539 -0.34525,-0.580619 -0.65308,-1.468474 -0.61246,-2.281689 z"
       id="greentea-mouth"
       sodipodi:nodetypes="aaaaaaaaaaaa" />
    <path
       style="fill:#d5c078;fill-opacity:0.6;stroke:none;stroke-width:0.640406;stroke-linecap:round;stroke-linejoin:round;stroke-dasharray:none;stroke-opacity:1;stop-color:#000000"
       d="m 140.92539,46.055874 c -0.46274,-0.04203 -0.95107,0.265537 -1.287,0.713676 -0.2751,0.366987 -0.43293,0.927292 -0.48325,1.466168 -0.03,0.320971 -0.0387,0.892442 0.11637,0.963317 0.15504,0.07087 0.50172,3.84e-4 0.73302,-0.11464 0.33774,-0.167942 0.67083,-0.431343 0.90615,-0.81541 0.30096,-0.491193 0.56842,-1.500249 0.57477,-1.786661 0.006,-0.286413 -0.35077,-0.40745 -0.56002,-0.426455 z"
       id="greentea-tongue"
       sodipodi:nodetypes="aaasaaza" />
    <path
       style="mix-blend-mode:normal;fill:#d5c078;fill-opacity:0.6;stroke:none;stroke-width:1.139;stroke-linecap:round;stroke-linejoin:round;stroke-dasharray:none;stroke-opacity:1;filter:url(#filter14194);stop-color:#000000"
       d="m 55.060665,76.547753 c -1.148119,0.694034 -2.396219,1.561587 -2.877736,2.813786 -0.183978,0.478441 -0.235847,1.144052 0.09593,1.534792 0.339715,0.400089 1.022401,0.46544 1.534793,0.351724 0.897075,-0.19909 1.427866,-1.158723 2.174287,-1.694667 0.518667,-0.372413 1.073954,-0.691434 1.598743,-1.055169 0.476589,-0.330327 1.214048,-0.476327 1.406892,-1.023194 0.135853,-0.385255 -0.04253,-0.883024 -0.319748,-1.183072 -0.32257,-0.349137 -0.867656,-0.472552 -1.342943,-0.479622 -0.795367,-0.01183 -1.589475,0.323915 -2.270218,0.735422 z"
       id="greentea-leftblush"
       sodipodi:nodetypes="aaaaaaaaaa"
       transform="matrix(0.48926818,0.29940871,-0.27148175,0.5465799,125.6505,-13.600878)" />
    <path
       style="mix-blend-mode:normal;fill:#d5c078;fill-opacity:0.6;stroke:none;stroke-width:1.139;stroke-linecap:round;stroke-linejoin:round;stroke-dasharray:none;stroke-opacity:1;filter:url(#filter14194-5);stop-color:#000000"
       d="m 55.060665,76.547753 c -1.148119,0.694034 -2.396219,1.561587 -2.877736,2.813786 -0.183978,0.478441 -0.235847,1.144052 0.09593,1.534792 0.339715,0.400089 1.022401,0.46544 1.534793,0.351724 0.897075,-0.19909 1.427866,-1.158723 2.174287,-1.694667 0.518667,-0.372413 1.073954,-0.691434 1.598743,-1.055169 0.476589,-0.330327 1.214048,-0.476327 1.406892,-1.023194 0.135853,-0.385255 -0.04253,-0.883024 -0.319748,-1.183072 -0.32257,-0.349137 -0.867656,-0.472552 -1.342943,-0.479622 -0.795367,-0.01183 -1.589475,0.323915 -2.270218,0.735422 z"
       id="greentea-rightblush"
       sodipodi:nodetypes="aaaaaaaaaa"
       transform="matrix(-0.4975939,0.26742157,0.25933553,0.56141413,153.01632,-12.075427)" />
    <path
       id="redbean-lefthand"
       style="fill:#dddda7;fill-opacity:1;stroke:none;stroke-width:0.427;stroke-linecap:round;stroke-linejoin:round;stop-color:#000000"
       d="m 73.615174,43.288999 c -0.646204,0.08016 -1.616756,0.591641 -1.395481,1.145718 0.06446,0.05301 0.111625,0.114527 0.145412,0.182576 0.902374,-0.4681 1.498634,-0.04066 1.935839,0.427204 0.714963,0.765088 1.098844,1.861586 1.426425,2.900311 0.188891,0.599108 0.316634,1.225871 0.386645,1.857602 0.472475,-0.629809 0.339871,-1.713658 0.323378,-2.538391 -0.01825,-0.912695 -0.139519,-1.912095 -0.669026,-2.655714 -0.468968,-0.658609 -1.220987,-1.357687 -2.029004,-1.32935 -0.03975,0.0014 -0.0811,0.0047 -0.124186,0.01006 z" />
    <path
       id="greentea-righthand"
       style="fill:#a8d18a;fill-opacity:1;stroke:none;stroke-width:0.485811;stroke-linecap:round;stroke-linejoin:round;stroke-dasharray:none;stop-color:#000000"
       d="m 153.73154,50.070835 c 0.39511,0.361414 1.25241,0.963922 1.40088,0.786193 -0.19689,-0.273093 -0.57283,-0.58819 -0.80493,-0.924462 -0.34348,-0.497646 -0.72477,-1.008873 -0.8567,-1.598978 -0.15459,-0.691491 -0.1421,-1.460772 0.1104,-2.122815 0.18636,-0.488631 0.56937,-0.902544 0.98258,-1.223099 0.48886,-0.379251 1.10497,-0.566664 1.6906,-0.766317 0.35104,-0.119678 0.66045,-0.152683 1.08295,-0.255337 0.49371,-0.119956 -0.73491,-0.251991 -1.11637,-0.251639 -0.79775,7.37e-4 -1.63219,0.150701 -2.33369,0.530566 -0.6745,0.365241 -1.35678,0.892991 -1.65353,1.600299 -0.30906,0.736658 -0.25189,1.644429 0.0174,2.396534 0.26441,0.738445 0.61754,1.098142 1.48037,1.829055 0,3e-6 -2e-5,0 -2e-5,0 z"
       sodipodi:nodetypes="asaaaaasaaaasaa" />
  </g>
</svg>
