<?xml version="1.0" encoding="UTF-8" standalone="no"?>
<!-- Created with Inkscape (http://www.inkscape.org/) -->

<svg
   width="4.25in"
   height="1.5in"
   viewBox="0 0 107.95002 38.100001"
   version="1.1"
   id="svg5"
   inkscape:version="1.2.1 (9c6d41e410, 2022-07-14)"
   sodipodi:docname="mochi-art.svg"
   xmlns:inkscape="http://www.inkscape.org/namespaces/inkscape"
   xmlns:sodipodi="http://sodipodi.sourceforge.net/DTD/sodipodi-0.dtd"
   xmlns="http://www.w3.org/2000/svg"
   xmlns:svg="http://www.w3.org/2000/svg">
  <sodipodi:namedview
     id="namedview7"
     pagecolor="#505050"
     bordercolor="#eeeeee"
     borderopacity="1"
     inkscape:showpageshadow="0"
     inkscape:pageopacity="0"
     inkscape:pagecheckerboard="0"
     inkscape:deskcolor="#505050"
     inkscape:document-units="mm"
     showgrid="false"
     inkscape:zoom="2.3701831"
     inkscape:cx="184.37394"
     inkscape:cy="71.724415"
     inkscape:window-width="1920"
     inkscape:window-height="986"
     inkscape:window-x="-11"
     inkscape:window-y="-11"
     inkscape:window-maximized="1"
     inkscape:current-layer="layer1" />
  <defs
     id="defs2">
    <filter
       inkscape:collect="always"
       style="color-interpolation-filters:sRGB"
       id="filter14194"
       x="-0.20862582"
       y="-0.26631275"
       width="1.4172516"
       height="1.5326255">
      <feGaussianBlur
         inkscape:collect="always"
         stdDeviation="0.60874877"
         id="feGaussianBlur14196" />
    </filter>
    <filter
       inkscape:collect="always"
       style="color-interpolation-filters:sRGB"
       id="filter14194-5"
       x="-0.20862582"
       y="-0.26631275"
       width="1.4172516"
       height="1.5326255">
      <feGaussianBlur
         inkscape:collect="always"
         stdDeviation="0.60874877"
         id="feGaussianBlur14196-1" />
    </filter>
    <filter
       inkscape:collect="always"
       style="color-interpolation-filters:sRGB"
       id="filter14194-5-3"
       x="-0.20752283"
       y="-0.26542535"
       width="1.4150457"
       height="1.5308507">
      <feGaussianBlur
         inkscape:collect="always"
         stdDeviation="0.60874877"
         id="feGaussianBlur14196-1-1" />
    </filter>
    <filter
       inkscape:collect="always"
       style="color-interpolation-filters:sRGB"
       id="filter14194-5-3-9"
       x="-0.20752283"
       y="-0.26542535"
       width="1.4150457"
       height="1.5308507">
      <feGaussianBlur
         inkscape:collect="always"
         stdDeviation="0.60874877"
         id="feGaussianBlur14196-1-1-4" />
    </filter>
  </defs>
  <g
     inkscape:label="Layer 1"
     inkscape:groupmode="layer"
     id="layer1"
     transform="translate(-61.322024,-25.298858)">
    <g
       id="g1454"
       transform="rotate(0.010082,-14681.686,14479.298)">
      <path
         id="path8597-4-2"
         style="fill:#2f4451;fill-opacity:1;stroke:none;stroke-width:0.420339;stroke-linecap:round;stroke-linejoin:round;stroke-dasharray:none;stroke-opacity:1;stop-color:#000000"
         d="m 112.78593,41.306853 c -0.14865,0.0011 -0.29868,0.01623 -0.44836,0.04763 -0.85312,0.178925 -1.37075,0.700045 -1.75744,1.299446 0.27733,0.454254 0.42211,0.956492 0.56096,1.457282 0.0913,-0.25225 0.21392,-0.518702 0.41529,-0.825623 0.28274,-0.430922 0.7736,-0.974583 1.44049,-0.862077 0.68926,0.116282 1.19141,0.656915 1.38553,1.208937 0.26901,0.764933 0.42597,1.621145 0.81003,2.278962 -3.2e-4,4.95e-4 -0.001,8.93e-4 -0.001,0.0015 0.13165,0.216689 0.29412,0.422136 0.50047,0.611242 0.5578,0.511148 1.3597,0.875381 2.23705,0.809322 0.46967,-0.03536 0.8885,-0.346471 0.73554,-0.730062 -0.11522,-0.289073 -0.48986,-0.453657 -0.84478,-0.384288 -0.51471,0.100598 -0.9529,-0.24359 -1.22102,-0.556315 -0.37462,-0.436934 -0.50054,-0.958464 -0.62995,-1.474705 3.3e-4,-0.0011 0.001,-0.0022 0.001,-0.0034 -0.045,-0.181277 -0.0918,-0.36167 -0.14916,-0.537542 -0.11332,-0.347607 -0.27097,-0.690749 -0.49202,-1.003149 -2.9e-4,5.06e-4 -10e-4,0.0018 -0.002,9.18e-4 -0.20913,-0.293858 -0.47186,-0.561572 -0.80946,-0.77885 -0.47878,-0.308151 -1.06239,-0.547147 -1.66758,-0.558687 -0.0211,-4.01e-4 -0.0422,-7.12e-4 -0.0635,-5.02e-4 z m -3.70509,3.367175 c -0.10199,0.344696 -0.20881,0.679346 -0.49702,1.129371 -0.27608,0.431084 -0.97252,0.465918 -1.51232,0.377139 -0.58009,-0.09541 -0.97895,0.577863 -0.56531,0.910913 0.41685,0.335635 1.09149,0.279532 1.62527,0.212037 0.75347,-0.09528 1.25503,-0.543068 1.59055,-1.08925 -0.22096,-0.312343 -0.37923,-0.655148 -0.49255,-1.002674 -0.0573,-0.175859 -0.10316,-0.356375 -0.14862,-0.537536 z"
         sodipodi:nodetypes="ccccccccccccccccccccccccccccccc" />
      <path
         id="path8597-1"
         style="fill:#436c6f;fill-opacity:1;stroke:none;stroke-width:0.420339;stroke-linecap:round;stroke-linejoin:round;stroke-dasharray:none;stroke-opacity:1;stop-color:#000000"
         d="m 107.76186,41.296258 c -0.0809,-0.0024 -0.162,-0.0019 -0.24438,0.003 -0.47047,0.0275 -0.89574,0.331479 -0.75067,0.717453 0.10929,0.290866 0.48058,0.461626 0.83697,0.398216 0.51682,-0.09197 0.948,0.259388 1.20971,0.576449 0.49465,0.599268 0.53059,1.345935 0.73772,2.027228 0.0103,0.03416 0.0218,0.06825 0.0331,0.102325 0.10233,0.297476 0.2387,0.589257 0.42232,0.859605 -0.002,0.0042 -0.005,0.0082 -0.008,0.01232 0.20564,0.312034 0.47158,0.596333 0.81833,0.82823 0.60479,0.404486 1.3837,0.698627 2.16914,0.54775 0.86194,-0.165568 1.39163,-0.682815 1.79152,-1.27992 -0.008,-0.01274 -0.0157,-0.02532 -0.0231,-0.03811 2e-5,-5.59e-4 7.6e-4,-9.01e-4 0.001,-0.0014 -0.2346,-0.420328 -0.37645,-0.918513 -0.51329,-1.422732 -0.0969,0.252635 -0.22551,0.518804 -0.43511,0.82498 -0.29162,0.426008 -0.79373,0.961226 -1.45837,0.837638 -0.68694,-0.127738 -1.17585,-0.677054 -1.36081,-1.231521 -0.0958,-0.287135 -0.16871,-0.58401 -0.24498,-0.881101 -7.1e-4,0.0019 -10e-4,0.0039 -0.002,0.0057 -0.063,-0.247157 -0.12748,-0.494554 -0.20867,-0.736851 -7.4e-4,-0.0041 -0.003,-0.0084 -0.005,-0.01266 -0.1612,-0.463526 -0.38862,-0.906219 -0.78957,-1.287332 -0.49602,-0.471457 -1.19539,-0.825258 -1.97623,-0.849273 z m 10.10896,0.0024 c -0.21876,-0.0016 -0.43921,0.01866 -0.63992,0.0406 -0.74898,0.08194 -1.2577,0.514102 -1.60435,1.047996 0.20207,0.306262 0.346,0.6389 0.44822,0.975214 0.0537,0.176747 0.0969,0.357842 0.13812,0.53979 -1e-5,0.0011 -7.8e-4,0.0023 -0.001,0.0034 0.004,0.01823 0.009,0.03646 0.0127,0.05468 0.11003,-0.345988 0.22304,-0.68078 0.52312,-1.129631 0.28498,-0.426282 0.98221,-0.448993 1.52024,-0.35124 0.57818,0.105052 0.99096,-0.56126 0.58412,-0.901066 -0.25623,-0.214026 -0.61657,-0.276983 -0.98116,-0.279682 z"
         sodipodi:nodetypes="cccssscccssccccsscccccscccccccccccccc" />
    </g>
    <path
       style="fill:#dddda7;fill-opacity:1;stroke:#362925;stroke-width:0.6;stroke-linecap:round;stroke-linejoin:round;stroke-dasharray:none;stroke-opacity:1;stop-color:#000000"
       d="m 106.75694,55.483961 c 0.42442,-0.326913 1.70801,-1.741126 2.24939,-2.862004 0.59887,-1.239878 0.87518,-2.677621 1.01287,-4.082739 0.0937,-0.956206 0.0515,-1.943604 -0.13455,-2.882248 -0.21185,-1.068356 -0.4731,-2.200183 -1.09996,-3.038975 -0.39232,-0.524943 -0.95369,-1.028301 -1.94359,-0.611629 -0.25641,-0.639345 -0.52716,-1.233008 -0.80246,-1.761563 -3.97263,-7.627062 -12.144113,-11.566118 -19.27531,-12.00661 -6.419682,-0.396543 -13.596531,2.69695 -18.078084,8.62013 -3.027152,4.000929 -5.421167,10.502187 -4.190286,15.854883 0.547809,2.382242 2.712469,3.848034 4.549452,4.617928 11.960577,5.012753 30.343898,3.82852 37.712568,-1.847173 z"
       id="path417-7"
       sodipodi:nodetypes="saaascsaaaass" />
    <path
       style="fill:#fcfccf;fill-opacity:1;stroke:none;stroke-width:0.212113;stroke-linecap:round;stroke-linejoin:round;stop-color:#000000"
       d="m 106.26837,54.308719 c 0.7633,-0.780134 0.57145,-0.506321 0.81702,-0.806516 0.74211,-0.907207 1.56711,-1.819653 1.95826,-2.97498 0.55159,-1.62919 0.66978,-3.490695 0.42394,-5.213472 -0.13238,-0.927573 -0.31904,-1.56324 -0.99728,-2.581998 -0.25799,-0.387498 -0.57443,-0.53801 -0.88064,-0.561287 -0.30621,-0.02328 -0.63063,0.135959 -0.79005,0.15247 -0.0872,0.009 -0.11281,-0.06513 -0.35192,-0.637378 -0.25263,-0.604572 -0.52476,-1.167084 -0.80644,-1.670564 -3.72319,-6.654859 -11.235216,-10.895454 -18.397065,-11.118692 -5.905506,-0.184078 -12.052979,3.566143 -15.711375,8.20565 -3.037368,3.851933 -4.89586,9.547035 -3.582767,14.273426 0.544879,1.961256 2.431966,3.568749 4.328834,4.307197 10.566599,4.113565 26.978083,3.919922 33.989443,-1.373856 z"
       id="path417-5-0"
       sodipodi:nodetypes="caaasssssaaaasc" />
    <path
       style="fill:#dddda7;fill-opacity:1;stroke:none;stroke-width:0.427006;stroke-linecap:round;stroke-linejoin:round;stroke-dasharray:none;stroke-opacity:1;stop-color:#000000"
       id="path8140"
       d="m 105.14381,44.32321 c -0.23968,0.2434 -0.38742,0.570441 -0.50793,0.89008 -0.30622,0.812222 -0.70347,1.701638 -0.52379,2.550867 0.0595,0.281581 0.22006,0.642111 0.50139,0.702998 0.2862,0.06194 0.58769,-0.203623 0.76015,-0.440257 0.22396,-0.307295 0.17482,-0.740509 0.24199,-1.114768 0.0633,-0.352274 0.0875,-0.710868 0.15153,-1.062994 0.0671,-0.368464 0.26587,-0.722932 0.24388,-1.096818 -0.0166,-0.275111 -0.0141,-0.685929 -0.27288,-0.780499 -0.21617,-0.07897 -0.43286,0.187402 -0.59436,0.351389 z"
       sodipodi:nodetypes="aaaaaaaaaa" />
    <path
       style="fill:#362925;fill-opacity:1;stroke:none;stroke-width:0.270339;stroke-linecap:round;stroke-linejoin:round;stroke-dasharray:none;stroke-opacity:1;stop-color:#000000"
       d="m 83.985842,38.239282 c -0.252309,-0.389104 -0.462238,-0.528673 -0.732588,-0.73555 -0.385152,-0.294725 -0.795298,-0.583976 -1.247416,-0.70529 -0.524164,-0.140646 -1.123224,-0.250935 -1.615884,-0.004 -0.428431,0.214787 -0.708719,0.721425 -0.943739,1.181045 -0.205582,0.402052 -0.315463,0.866954 -0.380677,1.325819 -0.06578,0.462875 -0.05456,0.904967 -0.006,1.406542 0.02953,0.304969 0.324537,-0.940504 0.519431,-1.393925 0.145683,-0.338935 0.288884,-0.683887 0.484565,-0.988708 0.183721,-0.286188 0.355621,-0.628195 0.639181,-0.776091 0.315631,-0.164624 0.696362,-0.0976 1.041247,-0.0503 0.388364,0.05327 0.751224,0.247978 1.126821,0.372024 0.371684,0.122754 1.374658,0.768782 1.115021,0.368374 z"
       id="path4270-7-5"
       sodipodi:nodetypes="saaaaasaaaaass" />
    <path
       style="fill:#362925;fill-opacity:1;stroke:none;stroke-width:0.270339;stroke-linecap:round;stroke-linejoin:round;stroke-dasharray:none;stroke-opacity:1;stop-color:#000000"
       d="m 100.23597,39.003226 c 0.003,-0.483016 -0.0913,-0.737372 -0.19862,-1.086673 -0.15297,-0.49763 -0.32885,-1.007848 -0.62698,-1.412049 -0.34564,-0.468614 -0.76728,-0.963772 -1.29224,-1.100506 -0.45653,-0.118896 -0.94842,0.09658 -1.379239,0.305144 -0.376855,0.182438 -0.71022,0.480211 -1.004621,0.803478 -0.296972,0.326096 -0.52129,0.687839 -0.747085,1.122592 -0.137288,0.26434 0.756303,-0.532962 1.151706,-0.763806 0.295566,-0.172557 0.592318,-0.35162 0.909929,-0.462899 0.2982,-0.104477 0.61638,-0.26169 0.92157,-0.187595 0.3397,0.08247 0.6093,0.394715 0.86059,0.666815 0.28297,0.306403 0.47086,0.708781 0.70625,1.063206 0.23294,0.350734 0.6954,1.549315 0.69874,1.052269 z"
       id="path4270-7-5-4"
       sodipodi:nodetypes="saaaaasaaaaass" />
    <path
       style="fill:#362925;fill-opacity:1;stroke:none;stroke-width:0.585435;stroke-linecap:round;stroke-linejoin:round;stroke-dasharray:none;stroke-opacity:1;stop-color:#000000"
       d="m 95.961807,42.266827 c -0.07076,-0.66308 -0.403137,-1.332728 -0.988633,-1.660535 -0.509247,-0.285118 -1.204222,-0.187696 -1.783534,-0.03571 -0.543519,0.142591 -0.951764,0.699011 -1.490449,0.863524 -0.537118,0.164036 -1.115467,0.189399 -1.666316,0.101738 -0.628237,-0.09998 -1.168204,-0.627319 -1.798911,-0.704725 -0.65655,-0.08058 -1.465928,-0.135292 -1.967604,0.262294 -0.506145,0.401129 -0.643857,1.154386 -0.580376,1.768578 0.116071,1.123005 0.839197,2.330614 1.705733,3.002514 1.032084,0.800263 2.427325,0.936636 3.67508,0.848748 1.382992,-0.09742 2.945997,-0.409475 3.939516,-1.505155 0.660439,-0.72835 1.06619,-1.903967 0.955494,-2.941267 z"
       id="path8076-6"
       sodipodi:nodetypes="aaaaaaaaaaaa" />
    <path
       style="fill:#d58f78;fill-opacity:1;stroke:none;stroke-width:0.91059;stroke-linecap:round;stroke-linejoin:round;stroke-dasharray:none;stroke-opacity:1;stop-color:#000000"
       d="m 87.165028,42.669448 c 0.820156,-0.05237 1.699468,0.292906 2.313644,0.799677 0.502959,0.415003 0.8052,1.051187 0.915693,1.664034 0.06581,0.365029 0.103751,1.015384 -0.168832,1.097575 -0.272585,0.08219 -0.825044,0.05255 -1.218574,-0.06354 -0.623406,-0.18392 -1.254629,-0.484665 -1.729032,-0.978947 -0.51412,-0.535665 -1.068284,-1.701988 -1.090801,-2.027916 -0.02251,-0.325928 0.607018,-0.467192 0.977902,-0.490875 z"
       id="path10256-5"
       sodipodi:nodetypes="aaasaaza" />
    <path
       style="mix-blend-mode:normal;fill:#f2b9a6;fill-opacity:0.6;stroke:none;stroke-width:1.139;stroke-linecap:round;stroke-linejoin:round;stroke-dasharray:none;stroke-opacity:1;filter:url(#filter14194-5-3);stop-color:#000000"
       d="m 55.060665,76.547753 c -1.148119,0.694034 -2.396219,1.561587 -2.877736,2.813786 -0.183978,0.478441 -0.235847,1.144052 0.09593,1.534792 0.339715,0.400089 0.930473,0.507339 1.534793,0.351724 1.97344,-0.50817 4.353225,-2.091574 5.179922,-3.77303 0.224126,-0.45586 -0.04253,-0.883024 -0.319748,-1.183072 -0.32257,-0.349137 -0.867656,-0.472552 -1.342943,-0.479622 -0.795367,-0.01183 -1.589475,0.323915 -2.270218,0.735422 z"
       id="path14123-5-7"
       sodipodi:nodetypes="aaaaaaaa"
       transform="matrix(0.22440811,0.47414812,-0.37569811,0.46231802,99.00632,-18.661991)" />
    <path
       style="mix-blend-mode:normal;fill:#f2b9a6;fill-opacity:0.6;stroke:none;stroke-width:1.139;stroke-linecap:round;stroke-linejoin:round;stroke-dasharray:none;stroke-opacity:1;filter:url(#filter14194-5-3-9);stop-color:#000000"
       d="m 55.060665,76.547753 c -1.148119,0.694034 -2.396219,1.561587 -2.877736,2.813786 -0.183978,0.478441 -0.235847,1.144052 0.09593,1.534792 0.339715,0.400089 0.930473,0.507339 1.534793,0.351724 1.97344,-0.50817 4.353225,-2.091574 5.179922,-3.77303 0.224126,-0.45586 -0.04253,-0.883024 -0.319748,-1.183072 -0.32257,-0.349137 -0.867656,-0.472552 -1.342943,-0.479622 -0.795367,-0.01183 -1.589475,0.323915 -2.270218,0.735422 z"
       id="path14123-5-7-0"
       sodipodi:nodetypes="aaaaaaaa"
       transform="matrix(-0.15108891,0.51013994,0.4387587,0.38425139,73.186492,-15.238358)" />
    <path
       style="fill:#a8d18a;fill-opacity:1;stroke:#2c3625;stroke-width:0.6;stroke-linecap:round;stroke-linejoin:round;stroke-dasharray:none;stroke-opacity:1;stop-color:#000000"
       d="m 124.60481,55.485218 c -0.41686,-0.326949 -0.75228,-0.744225 -1.01589,-1.232393 -0.2636,-0.488169 -0.45539,-1.047233 -0.58498,-1.65776 -0.12959,-0.610527 -0.80223,-0.890267 -1.12458,-1.40947 -0.46584,-0.750285 -0.95204,-1.536383 -1.14896,-2.431201 -0.27945,-1.269841 -0.40792,-2.710867 0.006,-3.930666 0.34693,-1.02195 0.72691,-1.669668 1.93414,-2.419459 0.37973,-0.235846 1.00064,-0.390348 1.85144,-0.398163 0.25185,-0.639417 0.51778,-1.233147 0.78816,-1.761761 3.90182,-7.627921 11.92761,-11.567419 18.93167,-12.007961 6.30523,-0.396587 13.35414,2.697253 17.75579,8.6211 2.97318,4.001379 5.32452,10.503368 4.11558,15.856666 -0.53805,2.382511 -2.66411,3.848468 -4.46835,4.618448 -11.74733,5.013318 -29.80292,3.828935 -37.0402,-1.84738 z"
       id="path417"
       sodipodi:nodetypes="sssaaascsaaaas" />
    <path
       style="fill:#b5eb98;fill-opacity:1;stroke:none;stroke-width:0.210226;stroke-linecap:round;stroke-linejoin:round;stop-color:#000000"
       d="m 125.18553,54.228639 c -0.39665,-0.30495 -0.7158,-0.694148 -0.96663,-1.149467 -0.25082,-0.45532 -0.15666,-1.008289 -0.43501,-1.499395 -0.23523,-0.415032 -0.89831,-0.678192 -1.25533,-1.131992 -0.45887,-0.583292 -0.89044,-1.24401 -1.09991,-1.994097 -0.2884,-1.032811 -0.39907,-2.200923 -0.1599,-3.250378 0.2005,-0.879773 0.75619,-1.800554 1.27817,-2.295447 0.67687,-0.641732 1.39457,-0.536055 2.17965,-0.662011 0.23066,-0.594322 0.73114,-1.692679 0.98841,-2.185722 3.7126,-7.114641 11.04176,-10.974928 18.15549,-11.246768 5.57352,-0.212984 11.3671,3.348453 14.8556,7.700454 3.18965,3.97918 5.22709,9.861314 3.916,14.78968 -0.51868,1.949687 -2.37449,3.568416 -4.25166,4.307681 -10.30739,4.059227 -26.31852,3.911818 -33.20488,-1.382538 z"
       id="path417-5"
       sodipodi:nodetypes="sssaaascsaaaas" />
    <path
       style="fill:#a8d18a;fill-opacity:1;stroke:none;stroke-width:0.486855;stroke-linecap:round;stroke-linejoin:round;stroke-dasharray:none;stroke-opacity:1;stop-color:#000000"
       id="path8579"
       d="m 125.56412,44.950741 c 0.006,0.236872 -0.009,0.473673 -0.0274,0.708545 -0.0421,0.538458 -0.21736,1.059307 -0.18918,1.601676 0.0171,0.327993 0.0126,0.764931 0.21387,0.946317 0.22272,0.200754 0.54668,0.02659 0.78197,-0.129067 0.22759,-0.150549 0.44479,-0.407424 0.53814,-0.731478 0.20223,-0.702243 0.0604,-1.535929 -0.0516,-2.285149 -0.0506,-0.33849 -0.10987,-0.705889 -0.2755,-0.968203 -0.14878,-0.235634 -0.37262,-0.518474 -0.59129,-0.45863 -0.24342,0.06661 -0.38465,0.48213 -0.44741,0.813144 -0.0308,0.162196 0.0434,0.334246 0.0483,0.502846 z"
       sodipodi:nodetypes="aaaaaaaaaaaa" />
    <path
       style="fill:#2c3625;fill-opacity:1;stroke:none;stroke-width:0.317598;stroke-linecap:round;stroke-linejoin:round;stroke-dasharray:none;stroke-opacity:1;stop-color:#000000"
       d="m 128.9479,43.662793 c -0.0517,-0.558647 -0.0178,-1.03896 0.13428,-1.519626 0.14897,-0.470865 0.39241,-0.933088 0.73707,-1.256948 0.37095,-0.348566 0.83591,-0.569043 1.33885,-0.650657 0.52717,-0.08555 1.08624,-0.02059 1.57605,0.198524 0.4703,0.210397 0.92684,0.557808 1.20455,1.025249 0.27419,0.461512 0.46428,0.912032 0.36525,1.60434 -0.0596,0.416907 -0.36541,-0.718098 -0.62841,-1.003044 -0.27126,-0.293879 -0.59569,-0.544525 -0.95025,-0.697192 -0.42959,-0.184964 -0.90139,-0.305672 -1.36677,-0.239502 -0.46162,0.06564 -0.86544,0.31139 -1.22497,0.604529 -0.25317,0.206426 -0.44158,0.499105 -0.62105,0.784025 -0.22561,0.358188 -0.4539,1.541572 -0.5646,1.150302 z"
       id="path4270"
       sodipodi:nodetypes="saaaaasaaaaacs" />
    <path
       style="fill:#2c3625;fill-opacity:1;stroke:none;stroke-width:0.317598;stroke-linecap:round;stroke-linejoin:round;stroke-dasharray:none;stroke-opacity:1;stop-color:#000000"
       d="m 143.5237,43.083201 c 0.13241,-0.542314 0.31936,-0.977995 0.61692,-1.367764 0.29149,-0.38182 0.6685,-0.718609 1.09536,-0.886497 0.45941,-0.180697 0.96528,-0.204904 1.46172,-0.08448 0.52037,0.126228 1.02189,0.40559 1.40881,0.801955 0.37152,0.380582 0.68588,0.883842 0.79427,1.429341 0.10701,0.538576 0.13897,1.033988 -0.17747,1.642301 -0.19055,0.366325 -0.10928,-0.814061 -0.26295,-1.183243 -0.15848,-0.380756 -0.38066,-0.74191 -0.66267,-1.02327 -0.34168,-0.340885 -0.74361,-0.63823 -1.19995,-0.758399 -0.45268,-0.1192 -0.90957,-0.04745 -1.34039,0.0859 -0.30337,0.09391 -0.57412,0.293766 -0.83399,0.489869 -0.32669,0.246532 -0.92275,1.263261 -0.89968,0.854277 z"
       id="path4270-7"
       sodipodi:nodetypes="saaaaasaaaaacs" />
    <path
       style="fill:#2c3625;fill-opacity:1;stroke:none;stroke-width:0.411729;stroke-linecap:round;stroke-linejoin:round;stroke-dasharray:none;stroke-opacity:1;stop-color:#000000"
       d="m 136.0829,45.636388 c 0.0276,-0.552256 0.23429,-1.166481 0.56567,-1.447993 0.28821,-0.24485 0.6834,-0.149474 1.00409,-0.01155 0.36129,0.15538 0.59378,0.735332 0.94068,0.904082 0.35274,0.171588 0.7433,0.232286 1.10617,0.08409 0.27191,-0.111044 0.45178,-0.614055 0.74113,-0.704179 0.36484,-0.113639 0.82588,-0.102578 1.10605,0.252328 0.28268,0.358065 0.35602,1.021423 0.31689,1.560359 -0.0715,0.985406 -0.47879,2.043653 -0.97672,2.619112 -0.58243,0.673117 -1.36325,0.751634 -2.0431,0.617979 -0.78023,-0.153389 -1.5911,-0.655331 -2.1484,-1.592539 -0.34525,-0.580619 -0.65308,-1.468474 -0.61246,-2.281689 z"
       id="path8076"
       sodipodi:nodetypes="aaaaaaaaaaaa" />
    <path
       style="fill:#d5c078;fill-opacity:0.6;stroke:none;stroke-width:0.640406;stroke-linecap:round;stroke-linejoin:round;stroke-dasharray:none;stroke-opacity:1;stop-color:#000000"
       d="m 140.92539,46.054374 c -0.46274,-0.04203 -0.95107,0.265537 -1.287,0.713676 -0.2751,0.366987 -0.43293,0.927292 -0.48325,1.466168 -0.03,0.320971 -0.0387,0.892442 0.11637,0.963317 0.15504,0.07087 0.50172,3.84e-4 0.73302,-0.11464 0.33774,-0.167942 0.67083,-0.431343 0.90615,-0.81541 0.30096,-0.491193 0.56842,-1.500249 0.57477,-1.786661 0.006,-0.286413 -0.35077,-0.40745 -0.56002,-0.426455 z"
       id="path10256"
       sodipodi:nodetypes="aaasaaza" />
    <path
       style="mix-blend-mode:normal;fill:#d5c078;fill-opacity:0.6;stroke:none;stroke-width:1.139;stroke-linecap:round;stroke-linejoin:round;stroke-dasharray:none;stroke-opacity:1;filter:url(#filter14194);stop-color:#000000"
       d="m 55.060665,76.547753 c -1.148119,0.694034 -2.396219,1.561587 -2.877736,2.813786 -0.183978,0.478441 -0.235847,1.144052 0.09593,1.534792 0.339715,0.400089 1.022401,0.46544 1.534793,0.351724 0.897075,-0.19909 1.427866,-1.158723 2.174287,-1.694667 0.518667,-0.372413 1.073954,-0.691434 1.598743,-1.055169 0.476589,-0.330327 1.214048,-0.476327 1.406892,-1.023194 0.135853,-0.385255 -0.04253,-0.883024 -0.319748,-1.183072 -0.32257,-0.349137 -0.867656,-0.472552 -1.342943,-0.479622 -0.795367,-0.01183 -1.589475,0.323915 -2.270218,0.735422 z"
       id="path14123"
       sodipodi:nodetypes="aaaaaaaaaa"
       transform="matrix(0.48926818,0.29940871,-0.27148175,0.5465799,125.6505,-13.602378)" />
    <path
       style="mix-blend-mode:normal;fill:#d5c078;fill-opacity:0.6;stroke:none;stroke-width:1.139;stroke-linecap:round;stroke-linejoin:round;stroke-dasharray:none;stroke-opacity:1;filter:url(#filter14194-5);stop-color:#000000"
       d="m 55.060665,76.547753 c -1.148119,0.694034 -2.396219,1.561587 -2.877736,2.813786 -0.183978,0.478441 -0.235847,1.144052 0.09593,1.534792 0.339715,0.400089 1.022401,0.46544 1.534793,0.351724 0.897075,-0.19909 1.427866,-1.158723 2.174287,-1.694667 0.518667,-0.372413 1.073954,-0.691434 1.598743,-1.055169 0.476589,-0.330327 1.214048,-0.476327 1.406892,-1.023194 0.135853,-0.385255 -0.04253,-0.883024 -0.319748,-1.183072 -0.32257,-0.349137 -0.867656,-0.472552 -1.342943,-0.479622 -0.795367,-0.01183 -1.589475,0.323915 -2.270218,0.735422 z"
       id="path14123-5"
       sodipodi:nodetypes="aaaaaaaaaa"
       transform="matrix(-0.53546702,0.17996961,0.16127033,0.59701978,162.77502,-10.258169)" />
    <path
       id="path375"
       style="fill:#dddda7;fill-opacity:1;stroke:none;stroke-width:0.427;stroke-linecap:round;stroke-linejoin:round;stop-color:#000000"
       d="m 73.615174,43.288999 c -0.646204,0.08016 -1.616756,0.591641 -1.395481,1.145718 0.06446,0.05301 0.111625,0.114527 0.145412,0.182576 0.902374,-0.4681 1.498634,-0.04066 1.935839,0.427204 0.714963,0.765088 1.098844,1.861586 1.426425,2.900311 0.188891,0.599108 0.316634,1.225871 0.386645,1.857602 0.472475,-0.629809 0.339871,-1.713658 0.323378,-2.538391 -0.01825,-0.912695 -0.139519,-1.912095 -0.669026,-2.655714 -0.468968,-0.658609 -1.220987,-1.357687 -2.029004,-1.32935 -0.03975,0.0014 -0.0811,0.0047 -0.124186,0.01006 z" />
    <path
       id="path4833"
       style="fill:#a8d18a;fill-opacity:1;stroke:none;stroke-width:0.485811;stroke-linecap:round;stroke-linejoin:round;stroke-dasharray:none;stop-color:#000000"
       d="m 153.73154,50.069335 c 0.39511,0.361414 1.25241,0.963922 1.40088,0.786193 -0.19689,-0.273093 -0.57283,-0.58819 -0.80493,-0.924462 -0.34348,-0.497646 -0.72477,-1.008873 -0.8567,-1.598978 -0.15459,-0.691491 -0.1421,-1.460772 0.1104,-2.122815 0.18636,-0.488631 0.56937,-0.902544 0.98258,-1.223099 0.48886,-0.379251 1.10497,-0.566664 1.6906,-0.766317 0.35104,-0.119678 0.66045,-0.152683 1.08295,-0.255337 0.49371,-0.119956 -0.73491,-0.251991 -1.11637,-0.251639 -0.79775,7.37e-4 -1.63219,0.150701 -2.33369,0.530566 -0.6745,0.365241 -1.35678,0.892991 -1.65353,1.600299 -0.30906,0.736658 -0.25189,1.644429 0.0174,2.396534 0.26441,0.738445 0.61754,1.098142 1.48037,1.829055 0,3e-6 -2e-5,0 -2e-5,0 z"
       sodipodi:nodetypes="asaaaaasaaaasaa" />
  </g>
</svg>
